<?xml version="1.0" encoding="UTF-8"?>
<svg width="1000" height="1000" viewBox="0 0 1000 1000" xmlns="http://www.w3.org/2000/svg">
  <defs>
    <pattern id="smallGrid" width="20" height="20" patternUnits="userSpaceOnUse">
      <path d="M 20 0 L 0 0 0 20" fill="none" stroke="rgba(255,255,255,0.05)" stroke-width="0.5"/>
    </pattern>
    <pattern id="grid" width="100" height="100" patternUnits="userSpaceOnUse">
      <rect width="100" height="100" fill="url(#smallGrid)"/>
      <path d="M 100 0 L 0 0 0 100" fill="none" stroke="rgba(255,255,255,0.1)" stroke-width="1"/>
    </pattern>
    <radialGradient id="glow" cx="50%" cy="50%" r="50%" fx="50%" fy="50%">
      <stop offset="0%" style="stop-color:rgba(255,215,0,0.2);stop-opacity:1" />
      <stop offset="100%" style="stop-color:rgba(255,215,0,0);stop-opacity:0" />
    </radialGradient>
  </defs>
  
  <!-- Background grid -->
  <rect width="100%" height="100%" fill="url(#grid)" />
  
  <!-- Glowing circles -->
  <circle cx="500" cy="500" r="300" fill="url(#glow)" opacity="0.5">
    <animate attributeName="r" values="300;320;300" dur="4s" repeatCount="indefinite" />
    <animate attributeName="opacity" values="0.5;0.7;0.5" dur="4s" repeatCount="indefinite" />
  </circle>
  
  <!-- Decorative elements -->
  <g transform="translate(500,500)" fill="none" stroke="rgba(255,215,0,0.2)" stroke-width="2">
    <circle r="200">
      <animate attributeName="r" values="200;220;200" dur="6s" repeatCount="indefinite" />
      <animate attributeName="stroke-opacity" values="0.2;0.4;0.2" dur="6s" repeatCount="indefinite" />
    </circle>
    <circle r="150" stroke-dasharray="10,10">
      <animate attributeName="r" values="150;170;150" dur="8s" repeatCount="indefinite" />
    </circle>
    <circle r="100">
      <animate attributeName="r" values="100;120;100" dur="4s" repeatCount="indefinite" />
    </circle>
  </g>
  
  <!-- Stars -->
  <g fill="rgba(255,215,0,0.3)">
    <path d="M100,100 l10,0 l3,10 l3,-10 l10,0 l-8,-6 l3,-10 l-8,6 l-8,-6 l3,10 z">
      <animate attributeName="opacity" values="0.3;0.6;0.3" dur="2s" repeatCount="indefinite" />
    </path>
    <path d="M800,200 l10,0 l3,10 l3,-10 l10,0 l-8,-6 l3,-10 l-8,6 l-8,-6 l3,10 z">
      <animate attributeName="opacity" values="0.3;0.6;0.3" dur="3s" repeatCount="indefinite" />
    </path>
    <path d="M200,800 l10,0 l3,10 l3,-10 l10,0 l-8,-6 l3,-10 l-8,6 l-8,-6 l3,10 z">
      <animate attributeName="opacity" values="0.3;0.6;0.3" dur="4s" repeatCount="indefinite" />
    </path>
    <path d="M900,900 l10,0 l3,10 l3,-10 l10,0 l-8,-6 l3,-10 l-8,6 l-8,-6 l3,10 z">
      <animate attributeName="opacity" values="0.3;0.6;0.3" dur="5s" repeatCount="indefinite" />
    </path>
  </g>
</svg> 