<?xml version="1.0" encoding="UTF-8"?>
<svg width="569" height="569" viewBox="0 0 569 569" xmlns="http://www.w3.org/2000/svg">
  <g>
    <path d="M0 216.05C0 96.731 96.731 0 216.05 0H352.95C472.27 0 569 96.731 569 216.05V352.95C569 472.27 472.27 569 352.95 569H216.05C96.731 569 0 472.27 0 352.95V216.05Z" fill="#1a1b2e"/>
    <path d="M426.69 402.94C414.13 402.94 403.94 413.13 403.94 425.69V444.31C403.94 456.87 414.13 467.06 426.69 467.06H445.31C457.87 467.06 468.06 456.87 468.06 444.31V425.69C468.06 413.13 457.87 402.94 445.31 402.94H426.69ZM420.03 380H451.97C473.53 380 491 397.47 491 419.03V450.97C491 472.53 473.53 490 451.97 490H420.03C398.47 490 381 472.53 381 450.97V419.03C381 397.47 398.47 380 420.03 380Z" fill="#FFFFFF"/>
    <path d="M229.67 91H342.33C418.36 91 480 152.637 480 228.67V340.5L478.08 340.31H415.71C410.45 340.31 405.31 340.84 400.35 341.86L394.43 343.7L397.44 334C398.51 328.78 399.07 323.37 399.07 317.83V252.17C399.07 207.86 363.14 171.931 318.83 171.931H253.17C208.86 171.931 172.93 207.86 172.93 252.17V317.83C172.93 362.14 208.86 398.07 253.17 398.07H318.83C324.37 398.07 329.78 397.51 335 396.44L343.32 393.86L341.05 401.16C340.03 406.13 339.5 411.26 339.5 416.52V478.89L339.51 479H229.67C153.64 479 92 417.36 92 341.33V228.67C92 152.637 153.64 91 229.67 91Z" fill="#FBC90E"/>
  </g>
</svg> 